<?xml version="1.0" encoding="UTF-8" standalone="no"?>
<svg
   height="96"
   width="96"
   version="1.1"
   id="svg2"
   inkscape:version="1.2.2 (b0a8486541, 2022-12-01)"
   sodipodi:docname="it.mijorus.webappmanager.svg"
   xmlns:inkscape="http://www.inkscape.org/namespaces/inkscape"
   xmlns:sodipodi="http://sodipodi.sourceforge.net/DTD/sodipodi-0.dtd"
   xmlns:xlink="http://www.w3.org/1999/xlink"
   xmlns="http://www.w3.org/2000/svg"
   xmlns:svg="http://www.w3.org/2000/svg"
   xmlns:rdf="http://www.w3.org/1999/02/22-rdf-syntax-ns#"
   xmlns:cc="http://creativecommons.org/ns#"
   xmlns:dc="http://purl.org/dc/elements/1.1/">
  <metadata
     id="metadata782">
    <rdf:RDF>
      <cc:Work
         rdf:about="">
        <dc:format>image/svg+xml</dc:format>
        <dc:type
           rdf:resource="http://purl.org/dc/dcmitype/StillImage" />
      </cc:Work>
    </rdf:RDF>
  </metadata>
  <sodipodi:namedview
     pagecolor="#ffffff"
     bordercolor="#666666"
     borderopacity="1"
     objecttolerance="10"
     gridtolerance="10"
     guidetolerance="10"
     inkscape:pageopacity="0"
     inkscape:pageshadow="2"
     inkscape:window-width="2560"
     inkscape:window-height="1376"
     id="namedview780"
     showgrid="false"
     inkscape:zoom="6.9532167"
     inkscape:cx="41.923042"
     inkscape:cy="63.855337"
     inkscape:window-x="0"
     inkscape:window-y="27"
     inkscape:window-maximized="1"
     inkscape:current-layer="svg2"
     inkscape:showpageshadow="2"
     inkscape:pagecheckerboard="0"
     inkscape:deskcolor="#d1d1d1" />
  <defs
     id="defs4">
    <linearGradient
       id="linearGradient6530"
       inkscape:swatch="solid">
      <stop
         style="stop-color:#000000;stop-opacity:1;"
         offset="0"
         id="stop6528" />
    </linearGradient>
    <linearGradient
       inkscape:collect="always"
       id="linearGradient1002">
      <stop
         style="stop-color:#a3b3be;stop-opacity:1;"
         offset="0.03004589"
         id="stop995" />
      <stop
         style="stop-color:#5a6576;stop-opacity:1;"
         offset="0.11940287"
         id="stop997" />
      <stop
         style="stop-color:#5a6576;stop-opacity:1;"
         offset="0.89697951"
         id="stop999" />
      <stop
         style="stop-color:#a3b3be;stop-opacity:1;"
         offset="1"
         id="stop1000" />
    </linearGradient>
    <linearGradient
       id="e">
      <stop
         stop-color="#b0b0b0"
         offset="0"
         id="stop7" />
      <stop
         stop-color="#f5f5f5"
         offset="1"
         id="stop9" />
    </linearGradient>
    <linearGradient
       id="a"
       stop-color="#fff">
      <stop
         offset="0"
         id="stop12" />
      <stop
         stop-opacity="0"
         offset="1"
         id="stop14" />
    </linearGradient>
    <filter
       id="i"
       height="1.384"
       width="1.384"
       color-interpolation-filters="sRGB"
       y="-.192"
       x="-.192">
      <feGaussianBlur
         stdDeviation="5.28"
         id="feGaussianBlur17" />
    </filter>
    <linearGradient
       id="j"
       y2="138.66"
       xlink:href="#a"
       gradientUnits="userSpaceOnUse"
       x2="48"
       y1="20.221"
       x1="48" />
    <clipPath
       id="f">
      <rect
         rx="6"
         ry="6"
         height="84"
         width="84"
         y="6"
         x="6"
         fill="#fff"
         id="rect21" />
    </clipPath>
    <linearGradient
       id="d"
       y2="7.0165"
       gradientUnits="userSpaceOnUse"
       x2="45.448"
       gradientTransform="matrix(1.0059 0 0 .99417 100 0)"
       y1="92.54"
       x1="45.448">
      <stop
         offset="0"
         id="stop24" />
      <stop
         stop-opacity=".58824"
         offset="1"
         id="stop26" />
    </linearGradient>
    <clipPath
       id="g">
      <rect
         rx="8.0455"
         ry="8.0455"
         height="112.64"
         width="112.64"
         y="7.6818"
         x="27.682"
         fill="#fff"
         id="rect29" />
    </clipPath>
    <linearGradient
       id="v"
       y2="6"
       xlink:href="#d"
       gradientUnits="userSpaceOnUse"
       x2="32.251"
       gradientTransform="translate(0,1)"
       y1="90"
       x1="32.251" />
    <radialGradient
       id="h"
       xlink:href="#a"
       gradientUnits="userSpaceOnUse"
       cy="90.172"
       cx="48"
       gradientTransform="matrix(1.1573 0 0 .99591 -7.551 .19713)"
       r="42" />
    <linearGradient
       id="u"
       y2="63.893"
       xlink:href="#a"
       gradientUnits="userSpaceOnUse"
       x2="36.357"
       y1="6"
       x1="36.357" />
    <linearGradient
       id="t"
       y2="6"
       gradientUnits="userSpaceOnUse"
       x2="48"
       gradientTransform="translate(.002534 .002375)"
       y1="90"
       x1="48">
      <stop
         stop-color="#8f6033"
         offset="0"
         id="stop35" />
      <stop
         stop-color="#a87849"
         offset="1"
         id="stop37" />
    </linearGradient>
    <linearGradient
       id="s"
       y2="31.657"
       gradientUnits="userSpaceOnUse"
       x2="49.996"
       y1="71.738"
       x1="49.996">
      <stop
         stop-color="#bf2222"
         offset="0"
         id="stop40" />
      <stop
         stop-color="#e94c4c"
         offset="1"
         id="stop42" />
    </linearGradient>
    <linearGradient
       id="r"
       y2="24"
       gradientUnits="userSpaceOnUse"
       x2="40"
       gradientTransform="matrix(1,0,0,1.125,0,-10.5)"
       y1="80"
       x1="56">
      <stop
         stop-color="#e7e7e7"
         offset="0"
         id="stop45" />
      <stop
         stop-color="#fff"
         offset="1"
         id="stop47" />
    </linearGradient>
    <linearGradient
       id="q"
       y2="6"
       xlink:href="#e"
       gradientUnits="userSpaceOnUse"
       x2="51"
       gradientTransform="matrix(0,-1,1,0,42,54)"
       y1="6"
       x1="45" />
    <linearGradient
       id="p"
       y2="6"
       xlink:href="#e"
       gradientUnits="userSpaceOnUse"
       x2="52"
       gradientTransform="matrix(0,1,-1,0,54,-42)"
       y1="6"
       x1="44" />
    <linearGradient
       id="o"
       y2="5"
       gradientUnits="userSpaceOnUse"
       x2="53"
       gradientTransform="matrix(0,-1,1,0,43,54)"
       y1="5"
       x1="43">
      <stop
         stop-color="#848484"
         offset="0"
         id="stop52" />
      <stop
         stop-color="#f5f5f5"
         offset="1"
         id="stop54" />
    </linearGradient>
    <linearGradient
       id="n"
       y2="15.055"
       xlink:href="#a"
       gradientUnits="userSpaceOnUse"
       x2="36"
       y1="6"
       x1="36" />
    <linearGradient
       id="m"
       y2="6"
       gradientUnits="userSpaceOnUse"
       x2="37"
       y1="16"
       x1="37">
      <stop
         stop-color="#3b3b3b"
         offset="0"
         id="stop58" />
      <stop
         stop-color="#aeaeae"
         offset=".12203"
         id="stop60" />
      <stop
         stop-color="#e9e9e9"
         offset=".24519"
         id="stop62" />
      <stop
         stop-color="#8a8a8a"
         offset=".44692"
         id="stop64" />
      <stop
         stop-color="#f0f0f0"
         offset="1"
         id="stop66" />
    </linearGradient>
    <linearGradient
       id="l"
       y2="5.9996"
       xlink:href="#d"
       gradientUnits="userSpaceOnUse"
       x2="32.251"
       gradientTransform="matrix(1.0238 0 0 1.0119 -1.1429 .929)"
       y1="90"
       x1="32.251" />
    <linearGradient
       id="k"
       y2="90.239"
       xlink:href="#d"
       gradientUnits="userSpaceOnUse"
       x2="32.251"
       gradientTransform="matrix(1.0238,0,0,-1.0119,-1.1429,98.071)"
       y1="6.1317"
       x1="32.251" />
    <linearGradient
       id="f-3"
       y2="1.0923001"
       gradientUnits="userSpaceOnUse"
       x2="6.6201"
       gradientTransform="matrix(-3.5754836,0,0,3.0823052,74.390602,19.873355)"
       y1="16.385"
       x1="6.6201"
       spreadMethod="pad">
      <stop
         stop-color="#dcdcdc"
         offset="0"
         id="stop27" />
      <stop
         stop-color="#ebebeb"
         offset=".30654"
         id="stop29" />
      <stop
         stop-color="#fff"
         offset=".70706"
         id="stop31" />
      <stop
         stop-color="#fafafa"
         offset=".84501"
         id="stop33" />
      <stop
         stop-color="#f0f0f0"
         offset="1"
         id="stop35-6" />
    </linearGradient>
    <filter
       style="color-interpolation-filters:sRGB"
       id="filter3899">
      <feGaussianBlur
         id="feGaussianBlur3901"
         stdDeviation="0.57" />
    </filter>
    <linearGradient
       x1="12"
       y1="4.5"
       x2="12"
       y2="20.5"
       id="linearGradient3182"
       xlink:href="#linearGradient3655"
       gradientUnits="userSpaceOnUse"
       gradientTransform="matrix(4,0,0,4,0,-82)" />
    <linearGradient
       id="linearGradient3655">
      <stop
         id="stop3657"
         style="stop-color:#ad0707;stop-opacity:1"
         offset="0" />
      <stop
         id="stop3659"
         style="stop-color:#f75535;stop-opacity:1"
         offset="1" />
    </linearGradient>
    <linearGradient
       id="outerBackgroundGradient-8">
      <stop
         style="stop-color:#465674;stop-opacity:1"
         offset="0"
         id="stop3864-8-6-9" />
      <stop
         style="stop-color:#798bac;stop-opacity:1"
         offset="1"
         id="stop3866-9-1-0" />
    </linearGradient>
    <linearGradient
       id="outerBackgroundGradient-43">
      <stop
         style="stop-color:#2c333d;stop-opacity:1"
         offset="0"
         id="stop3864-8-6-744" />
      <stop
         style="stop-color:#485362;stop-opacity:1"
         offset="1"
         id="stop3866-9-1-541" />
    </linearGradient>
    <clipPath
       clipPathUnits="userSpaceOnUse"
       id="clipPath4492">
      <path
         id="path4494"
         d="m 15.562635,9.6015624 c -3.857522,0 -6.9609379,3.1034156 -6.9609379,6.9609376 v 16.875 c 0,3.857522 3.1034159,6.960937 6.9609379,6.960937 h 16.875 c 3.857522,0 6.960937,-3.103415 6.960937,-6.960937 v -16.875 c 0,-3.857522 -3.103415,-6.9609376 -6.960937,-6.9609376 z"
         style="color:#bebebe;display:inline;overflow:visible;visibility:visible;opacity:0.5;fill:#b35151;fill-opacity:1;fill-rule:nonzero;stroke:none;stroke-width:2;marker:none;enable-background:accumulate"
         inkscape:connector-curvature="0" />
    </clipPath>
    <linearGradient
       id="linearGradient3929">
      <stop
         style="stop-color:#f6a602;stop-opacity:1;"
         offset="0"
         id="stop3931" />
      <stop
         style="stop-color:#ffb621;stop-opacity:1;"
         offset="1"
         id="stop3933" />
    </linearGradient>
    <clipPath
       clipPathUnits="userSpaceOnUse"
       id="clipPath10483">
      <path
         inkscape:connector-curvature="0"
         id="path10485"
         d="m 84,46.500023 c -27.43126,0 -49.5,22.06873 -49.5,49.5 V 216.00002 c 0,27.43127 22.06874,49.5 49.5,49.5 h 120 c 27.43127,0 49.5,-22.06873 49.5,-49.5 V 96.000023 c 0,-27.43127 -22.06873,-49.5 -49.5,-49.5 z"
         style="color:#bebebe;display:inline;overflow:visible;visibility:visible;opacity:0.5;fill:#bf4f4f;fill-opacity:1;fill-rule:nonzero;stroke:none;stroke-width:2;marker:none;enable-background:accumulate" />
    </clipPath>
    <linearGradient
       inkscape:collect="always"
       xlink:href="#linearGradient1002"
       id="linearGradient1004"
       x1="18.673296"
       y1="49.9651"
       x2="82.402486"
       y2="49.9651"
       gradientUnits="userSpaceOnUse"
       gradientTransform="matrix(1.3370376,0,0,1.368484,-17.175751,-17.583319)" />
    <clipPath
       clipPathUnits="userSpaceOnUse"
       id="clipPath10483-6">
      <path
         inkscape:connector-curvature="0"
         id="path10485-7"
         d="m 84,46.500023 c -27.43126,0 -49.5,22.06873 -49.5,49.5 V 216.00002 c 0,27.43127 22.06874,49.5 49.5,49.5 h 120 c 27.43127,0 49.5,-22.06873 49.5,-49.5 V 96.000023 c 0,-27.43127 -22.06873,-49.5 -49.5,-49.5 z"
         style="color:#bebebe;display:inline;overflow:visible;visibility:visible;opacity:0.5;fill:#bf4f4f;fill-opacity:1;fill-rule:nonzero;stroke:none;stroke-width:2;marker:none;enable-background:accumulate" />
    </clipPath>
  </defs>
  <path
     sodipodi:nodetypes="csscscccsscccccsssscccsscsscsscsscscccccccs"
     inkscape:connector-curvature="0"
     id="path3852-3"
     d="m 54.508288,24.997872 c -2.880787,-0.0066 -5.268239,0.50228 -7.584478,1.692963 -2.146169,1.103275 -4.753868,3.296142 -6.051444,5.037599 -2.194123,2.944682 -2.109047,2.861116 -3.146748,2.436216 -3.271885,-1.339679 -7.037297,-1.570344 -10.045395,-0.619375 -5.567948,1.760202 -9.565085,7.24077 -9.803339,13.46112 -0.03834,1.001574 -0.1348,1.928866 -0.242054,2.105886 -0.107285,0.177009 -0.810695,0.474489 -1.533032,0.660666 -3.422675,0.882097 -6.1203961,3.12597 -7.5441313,6.235063 -0.6753773,1.474822 -0.7665185,1.984753 -0.7665185,4.955015 0,3.122809 0.039083,3.355006 0.8875478,5.120184 1.475477,3.070007 5.567324,6.524102 9.440249,6.524102 h 7.503786 c -0.02141,-0.231156 -0.177729,-0.66198 -0.40343,-1.11488 -0.798456,-1.601904 -1.370821,-4.403472 -1.371657,-6.68927 -0.0027,-6.280186 3.673672,-11.170746 10.005048,-13.295958 2.044995,-0.686421 2.541606,-1.005089 2.541606,-1.610376 0,-0.853176 1.518379,-4.310428 2.702979,-6.152479 1.661625,-2.583797 3.838362,-4.564996 6.575904,-5.94602 6.852297,-3.456816 14.909707,-2.329938 19.848728,2.725256 l 1.77509,1.775552 1.89612,-0.495503 c 1.055859,-0.281668 2.280969,-0.527743 2.702973,-0.536792 0.967008,-0.02078 1.021551,-0.748556 0.201715,-3.262054 C 69.53188,30.137953 62.559818,25.018089 54.508288,24.997872 Z m -0.524464,14.121794 c -3.413514,-0.01874 -4.843347,0.328562 -7.665159,1.775546 -2.696214,1.382557 -5.213099,4.740947 -6.575898,8.795156 -0.299971,0.892428 -0.564804,1.891701 -0.564804,2.229753 0,1.077367 -0.640735,1.548489 -2.702978,1.982005 -4.144417,0.87124 -7.28241,3.262871 -8.47202,6.400233 -0.485288,1.279897 -0.648391,2.221838 -0.645484,4.211763 0.0091,6.224119 3.520627,12.057204 8.835102,12.057204 1.290975,0 6.510192,0.0385 26.021203,0 h 24.326802 c 3.872924,0 6.160158,-5.239328 6.414525,-8.051905 0.386546,-5.135178 -1.757069,-8.618065 -6.293498,-10.281651 L 85.088243,57.659682 84.886528,55.429923 C 84.238328,47.301719 76.210674,42.41491 68.1442,45.272144 l -1.65406,0.619377 -1.896119,-2.023299 C 61.211213,40.232044 58.831729,39.146316 53.983824,39.119666 Z"
     style="display:inline;fill:url(#linearGradient1004);fill-opacity:1;stroke:none;stroke-width:0.538777;enable-background:new" />
  <path
     sodipodi:nodetypes="csscscccsscccccsssscccsscsscsscsscscccccccs"
     inkscape:connector-curvature="0"
     id="path3852"
     d="m 51.11105,21.786577 c -2.875376,-0.0064 -5.258344,0.489815 -7.570234,1.650953 -2.142139,1.075898 -4.744941,3.214352 -6.040079,4.912597 -2.190004,2.871613 -2.105088,2.79012 -3.140839,2.375765 -3.265742,-1.306438 -7.024081,-1.531379 -10.02653,-0.604007 -5.557492,1.716524 -9.547124,7.061098 -9.78493,13.127098 -0.03827,0.976722 -0.134547,1.881003 -0.2416,2.05363 -0.107082,0.172617 -0.809171,0.462716 -1.530152,0.644273 -3.4162463,0.86021 -6.1089023,3.048402 -7.5299633,6.080347 -0.67411,1.438226 -0.765079,1.935504 -0.765079,4.832062 0,3.04532 0.03901,3.271755 0.88588,4.993133 1.472706,2.993828 5.5568683,6.362213 9.4225213,6.362213 h 7.489693 c -0.02136,-0.22542 -0.177394,-0.645553 -0.402672,-1.087215 -0.796955,-1.562155 -1.368246,-4.294205 -1.36908,-6.523284 -0.0027,-6.124349 3.666772,-10.893555 9.986259,-12.966034 2.041155,-0.669388 2.536833,-0.980149 2.536833,-1.570416 0,-0.832006 1.515528,-4.20347 2.697903,-5.999812 1.658504,-2.519684 3.831154,-4.451721 6.563554,-5.798477 6.83943,-3.371039 14.881709,-2.272123 19.811453,2.657632 l 1.771758,1.731494 1.892559,-0.483208 c 1.053876,-0.274679 2.276685,-0.514648 2.697896,-0.523472 0.965193,-0.02026 1.019634,-0.729981 0.201336,-3.18111 C 66.10643,26.799111 59.147461,21.806291 51.11105,21.786577 Z m -0.523479,13.771377 c -3.407102,-0.01828 -4.83425,0.320409 -7.650764,1.731488 -2.69115,1.34825 -5.203308,4.623305 -6.563549,8.576914 -0.299408,0.870283 -0.563743,1.844761 -0.563743,2.174424 0,1.050634 -0.639531,1.510065 -2.697901,1.932824 -4.136634,0.849621 -7.268735,3.181907 -8.45611,6.241419 -0.484377,1.248137 -0.647175,2.166705 -0.644272,4.107253 0.0091,6.069674 3.514014,11.758018 8.81851,11.758018 1.28855,0 6.497966,0.03754 25.972336,0 h 24.281118 c 3.865652,0 6.148586,-5.10932 6.402486,-7.852106 0.38581,-5.007755 -1.753773,-8.404217 -6.281686,-10.026524 L 81.633579,53.637921 81.432243,51.46349 C 80.78526,43.536978 72.772682,38.77143 64.721355,41.557766 L 63.070402,42.161774 61.177844,40.18868 C 57.801389,36.642729 55.426373,35.583942 50.587571,35.557954 Z"
     style="display:inline;fill:#363d46;fill-opacity:1;stroke:#ffffff;stroke-width:0.531142;stroke-dasharray:none;stroke-opacity:1;enable-background:new" />
</svg>
